<?xml version="1.0" encoding="UTF-8" standalone="no"?><svg xmlns="http://www.w3.org/2000/svg" xmlns:xlink="http://www.w3.org/1999/xlink" fill="#daa520" height="243.7" preserveAspectRatio="xMidYMid meet" version="1" viewBox="-13.9 -2.5 422.3 243.7" width="422.3" zoomAndPan="magnify"><g id="change1_1"><path d="M191.61,139.57c-14.49,0-28.46,0-42.43,0c-22.5,0-45,0-67.49-0.02c-1.66,0-3.73,0.43-4.88-0.38 c-1.53-1.07-3.28-3.2-3.2-4.79c0.08-1.51,2.22-3.14,3.78-4.27c0.77-0.56,2.26-0.17,3.43-0.17c37.5,0,74.99-0.01,112.49,0 c6.76,0,7.5,0.7,7.48,7.42c-0.07,21.66-0.25,43.33-0.24,64.99c0,3.68-1.28,6.24-4.04,8.59c-24.46,20.92-53.03,29.32-84.73,27.28 c-52.57-3.38-95.66-39.7-108.32-90.76C-13.85,77.63,35.72,7.43,107.38,0.64c32.77-3.1,62.45,4.93,87.98,26.29 c2.36,1.97,4.15,4.69,5.98,7.23c29.24,40.54,58.44,81.1,87.66,121.65c0.38,0.53,0.89,0.96,1.87,2.01c1.4-1.79,2.72-3.37,3.91-5.04 c34.21-48.04,68.42-96.08,102.62-144.13c0.87-1.22,1.53-2.8,2.71-3.54c1.51-0.95,3.88-2.11,5.08-1.53c1.5,0.72,3.1,3.12,3.1,4.8 c0.09,44.49-0.05,88.98-0.09,133.47c-0.03,30.83,0.02,61.66,0.01,92.49c0,1.48,0.2,3.32-0.56,4.36c-0.93,1.27-2.77,2.51-4.23,2.53 c-1.13,0.02-2.81-1.66-3.3-2.95c-0.62-1.62-0.34-3.61-0.34-5.43c-0.01-67.66-0.02-135.32-0.02-202.98c0-2.1,0-4.19,0-6.29 c-0.38-0.15-0.77-0.29-1.15-0.44c-1.05,1.34-2.14,2.65-3.13,4.04c-31.96,44.73-63.87,89.5-95.96,134.14 c-2.62,3.65-2.52,6.01,0.07,9.52c14.24,19.3,28.25,38.77,42.31,58.21c1.36,1.89,3.04,3.77,3.63,5.92c0.46,1.69,0,4.99-1,5.43 c-1.67,0.74-4.24,0.14-6.15-0.62c-1.18-0.47-1.84-2.27-2.71-3.49c-46.84-65.22-93.65-130.47-140.6-195.61 c-2.38-3.3-5.66-6.08-8.91-8.59c-22.13-17.09-47.13-24.79-75.14-22.94C54.58,12.87,8.27,63.25,9.37,119.96 c1.06,54.72,39.23,99.44,93.13,108.37c32.3,5.35,60.96-3.98,86.66-23.53c1.16-0.88,2.34-2.65,2.35-4.02 C191.66,180.63,191.61,160.49,191.61,139.57z"/></g></svg>